<svg xmlns="http://www.w3.org/2000/svg" viewBox="0 0 800 600" font-family="Segoe UI, Arial, sans-serif"><rect width="800" height="600" fill="#FFFFFF"/><text x="20" y="28" font-size="13" fill="#9AA0A6" font-weight="bold" text-anchor="start">WIREFRAME 01 — Seguridad / Login</text><rect x="250" y="90" width="300" height="430" rx="10" fill="none" stroke="#9AA0A6" stroke-width="1.5"/><rect x="365" y="120" width="70" height="70" rx="4" fill="none" stroke="#9AA0A6" stroke-width="1.5"/><line x1="365" y1="120" x2="435" y2="190" stroke="#9AA0A6" stroke-width="1"/><line x1="435" y1="120" x2="365" y2="190" stroke="#9AA0A6" stroke-width="1"/><text x="388" y="208" font-size="11" fill="#9AA0A6" font-weight="normal" text-anchor="start">LOGO</text><rect x="340" y="225" width="120" height="10" rx="5.0" fill="#C4C8CC"/><rect x="360" y="245" width="80" height="6" rx="3.0" fill="#C4C8CC"/><text x="280" y="279" font-size="11" fill="#9AA0A6" font-weight="normal" text-anchor="start">Usuario / Correo</text><rect x="280" y="285" width="240" height="38" rx="6" fill="none" stroke="#9AA0A6" stroke-width="1.5"/><text x="280" y="349" font-size="11" fill="#9AA0A6" font-weight="normal" text-anchor="start">Contraseña</text><rect x="280" y="355" width="240" height="38" rx="6" fill="none" stroke="#9AA0A6" stroke-width="1.5"/><rect x="280" y="408" width="14" height="14" rx="3" fill="none" stroke="#9AA0A6" stroke-width="1.5"/><rect x="302" y="411" width="70" height="8" rx="4.0" fill="#C4C8CC"/><rect x="280" y="440" width="240" height="38" rx="6" fill="#C4C8CC" stroke="#9AA0A6" stroke-width="1.5"/><text x="400.0" y="464" font-size="13" fill="#5F6368" font-weight="bold" text-anchor="middle">INICIAR SESIÓN</text><text x="400" y="505" font-size="11" fill="#9AA0A6" font-weight="normal" text-anchor="middle">¿Olvidaste tu contraseña?</text><line x1="330" y1="510" x2="470" y2="510" stroke="#C4C8CC" stroke-width="1"/></svg>