<svg xmlns="http://www.w3.org/2000/svg" viewBox="0 0 1200 750" font-family="Segoe UI, Arial, sans-serif"><rect width="1200" height="750" fill="#FFFFFF"/><text x="20" y="26" font-size="13" fill="#9AA0A6" font-weight="bold" text-anchor="start">WIREFRAME 03 — Administración / Dashboard</text><rect x="20" y="40" width="1160" height="690" rx="8" fill="none" stroke="#9AA0A6" stroke-width="1.5"/><rect x="20" y="40" width="210" height="690" rx="8" fill="#E8EAED" stroke="#9AA0A6" stroke-width="1.5"/><rect x="55" y="70" width="40" height="40" rx="4" fill="none" stroke="#9AA0A6" stroke-width="1.5"/><line x1="55" y1="70" x2="95" y2="110" stroke="#9AA0A6" stroke-width="1"/><line x1="95" y1="70" x2="55" y2="110" stroke="#9AA0A6" stroke-width="1"/><rect x="105" y="82" width="90" height="10" rx="5.0" fill="#C4C8CC"/><rect x="35" y="132" width="180" height="30" rx="6" fill="#C4C8CC" stroke="none" stroke-width="1.5"/><circle cx="52" cy="146" r="6" fill="none" stroke="#9AA0A6" stroke-width="1.5"/><text x="68" y="150" font-size="12" fill="#5F6368" font-weight="normal" text-anchor="start">Dashboard</text><circle cx="52" cy="190" r="6" fill="none" stroke="#9AA0A6" stroke-width="1.5"/><text x="68" y="194" font-size="12" fill="#5F6368" font-weight="normal" text-anchor="start">Usuarios</text><circle cx="52" cy="234" r="6" fill="none" stroke="#9AA0A6" stroke-width="1.5"/><text x="68" y="238" font-size="12" fill="#5F6368" font-weight="normal" text-anchor="start">Roles</text><circle cx="52" cy="278" r="6" fill="none" stroke="#9AA0A6" stroke-width="1.5"/><text x="68" y="282" font-size="12" fill="#5F6368" font-weight="normal" text-anchor="start">Clientes</text><circle cx="52" cy="322" r="6" fill="none" stroke="#9AA0A6" stroke-width="1.5"/><text x="68" y="326" font-size="12" fill="#5F6368" font-weight="normal" text-anchor="start">Repuestos</text><circle cx="52" cy="366" r="6" fill="none" stroke="#9AA0A6" stroke-width="1.5"/><text x="68" y="370" font-size="12" fill="#5F6368" font-weight="normal" text-anchor="start">Reportes</text><line x1="230" y1="95" x2="1180" y2="95" stroke="#9AA0A6" stroke-width="1"/><rect x="260" y="58" width="260" height="26" rx="13" fill="none" stroke="#9AA0A6" stroke-width="1.5"/><text x="275" y="75" font-size="11" fill="#9AA0A6" font-weight="normal" text-anchor="start">🔍  Buscar...</text><circle cx="1140" cy="71" r="14" fill="none" stroke="#9AA0A6" stroke-width="1.5"/><rect x="1050" y="66" width="70" height="8" rx="4.0" fill="#C4C8CC"/><text x="260" y="130" font-size="16" fill="#5F6368" font-weight="bold" text-anchor="start">Dashboard</text><rect x="260" y="150" width="210" height="80" rx="8" fill="none" stroke="#9AA0A6" stroke-width="1.5"/><rect x="275" y="168" width="90" height="7" rx="3.5" fill="#C4C8CC"/><rect x="275" y="190" width="60" height="14" rx="7.0" fill="#C4C8CC"/><circle cx="440" cy="190" r="14" fill="none" stroke="#9AA0A6" stroke-width="1.5"/><rect x="488" y="150" width="210" height="80" rx="8" fill="none" stroke="#9AA0A6" stroke-width="1.5"/><rect x="503" y="168" width="90" height="7" rx="3.5" fill="#C4C8CC"/><rect x="503" y="190" width="60" height="14" rx="7.0" fill="#C4C8CC"/><circle cx="668" cy="190" r="14" fill="none" stroke="#9AA0A6" stroke-width="1.5"/><rect x="716" y="150" width="210" height="80" rx="8" fill="none" stroke="#9AA0A6" stroke-width="1.5"/><rect x="731" y="168" width="90" height="7" rx="3.5" fill="#C4C8CC"/><rect x="731" y="190" width="60" height="14" rx="7.0" fill="#C4C8CC"/><circle cx="896" cy="190" r="14" fill="none" stroke="#9AA0A6" stroke-width="1.5"/><rect x="944" y="150" width="210" height="80" rx="8" fill="none" stroke="#9AA0A6" stroke-width="1.5"/><rect x="959" y="168" width="90" height="7" rx="3.5" fill="#C4C8CC"/><rect x="959" y="190" width="60" height="14" rx="7.0" fill="#C4C8CC"/><circle cx="1124" cy="190" r="14" fill="none" stroke="#9AA0A6" stroke-width="1.5"/><rect x="260" y="255" width="560" height="250" rx="8" fill="none" stroke="#9AA0A6" stroke-width="1.5"/><rect x="280" y="275" width="140" height="8" rx="4.0" fill="#C4C8CC"/><rect x="300" y="410" width="42" height="70" fill="#C4C8CC"/><rect x="370" y="360" width="42" height="120" fill="#C4C8CC"/><rect x="440" y="385" width="42" height="95" fill="#C4C8CC"/><rect x="510" y="330" width="42" height="150" fill="#C4C8CC"/><rect x="580" y="370" width="42" height="110" fill="#C4C8CC"/><rect x="650" y="310" width="42" height="170" fill="#C4C8CC"/><rect x="720" y="350" width="42" height="130" fill="#C4C8CC"/><line x1="285" y1="480" x2="800" y2="480" stroke="#9AA0A6" stroke-width="1"/><rect x="845" y="255" width="335" height="250" rx="8" fill="none" stroke="#9AA0A6" stroke-width="1.5"/><rect x="865" y="275" width="150" height="8" rx="4.0" fill="#C4C8CC"/><circle cx="878" cy="308" r="10" fill="#E8EAED"/><rect x="900" y="300" width="200" height="7" rx="3.5" fill="#C4C8CC"/><rect x="900" y="313" width="140" height="5" rx="2.5" fill="#C4C8CC"/><circle cx="878" cy="348" r="10" fill="#E8EAED"/><rect x="900" y="340" width="200" height="7" rx="3.5" fill="#C4C8CC"/><rect x="900" y="353" width="140" height="5" rx="2.5" fill="#C4C8CC"/><circle cx="878" cy="388" r="10" fill="#E8EAED"/><rect x="900" y="380" width="200" height="7" rx="3.5" fill="#C4C8CC"/><rect x="900" y="393" width="140" height="5" rx="2.5" fill="#C4C8CC"/><circle cx="878" cy="428" r="10" fill="#E8EAED"/><rect x="900" y="420" width="200" height="7" rx="3.5" fill="#C4C8CC"/><rect x="900" y="433" width="140" height="5" rx="2.5" fill="#C4C8CC"/><circle cx="878" cy="468" r="10" fill="#E8EAED"/><rect x="900" y="460" width="200" height="7" rx="3.5" fill="#C4C8CC"/><rect x="900" y="473" width="140" height="5" rx="2.5" fill="#C4C8CC"/><rect x="260" y="525" width="920" height="185" rx="8" fill="none" stroke="#9AA0A6" stroke-width="1.5"/><rect x="280" y="545" width="180" height="8" rx="4.0" fill="#C4C8CC"/><rect x="275" y="570" width="890" height="24" fill="#E8EAED"/><rect x="295" y="578" width="90" height="7" rx="3.5" fill="#C4C8CC"/><rect x="473" y="578" width="90" height="7" rx="3.5" fill="#C4C8CC"/><rect x="651" y="578" width="90" height="7" rx="3.5" fill="#C4C8CC"/><rect x="829" y="578" width="90" height="7" rx="3.5" fill="#C4C8CC"/><rect x="1007" y="578" width="90" height="7" rx="3.5" fill="#C4C8CC"/><rect x="295" y="604" width="110" height="6" rx="3.0" fill="#C4C8CC"/><rect x="473" y="604" width="110" height="6" rx="3.0" fill="#C4C8CC"/><rect x="651" y="604" width="110" height="6" rx="3.0" fill="#C4C8CC"/><rect x="829" y="604" width="110" height="6" rx="3.0" fill="#C4C8CC"/><rect x="1007" y="604" width="110" height="6" rx="3.0" fill="#C4C8CC"/><rect x="295" y="634" width="110" height="6" rx="3.0" fill="#C4C8CC"/><rect x="473" y="634" width="110" height="6" rx="3.0" fill="#C4C8CC"/><rect x="651" y="634" width="110" height="6" rx="3.0" fill="#C4C8CC"/><rect x="829" y="634" width="110" height="6" rx="3.0" fill="#C4C8CC"/><rect x="1007" y="634" width="110" height="6" rx="3.0" fill="#C4C8CC"/><rect x="295" y="664" width="110" height="6" rx="3.0" fill="#C4C8CC"/><rect x="473" y="664" width="110" height="6" rx="3.0" fill="#C4C8CC"/><rect x="651" y="664" width="110" height="6" rx="3.0" fill="#C4C8CC"/><rect x="829" y="664" width="110" height="6" rx="3.0" fill="#C4C8CC"/><rect x="1007" y="664" width="110" height="6" rx="3.0" fill="#C4C8CC"/></svg>