<svg xmlns="http://www.w3.org/2000/svg" viewBox="0 0 1200 750" font-family="Segoe UI, Arial, sans-serif"><rect width="1200" height="750" fill="#FFFFFF"/><text x="20" y="26" font-size="13" fill="#9AA0A6" font-weight="bold" text-anchor="start">WIREFRAME 04 — Administración / Usuarios y Roles</text><rect x="20" y="40" width="1160" height="690" rx="8" fill="none" stroke="#9AA0A6" stroke-width="1.5"/><rect x="20" y="40" width="210" height="690" rx="8" fill="#E8EAED" stroke="#9AA0A6" stroke-width="1.5"/><rect x="55" y="70" width="40" height="40" rx="4" fill="none" stroke="#9AA0A6" stroke-width="1.5"/><line x1="55" y1="70" x2="95" y2="110" stroke="#9AA0A6" stroke-width="1"/><line x1="95" y1="70" x2="55" y2="110" stroke="#9AA0A6" stroke-width="1"/><rect x="105" y="82" width="90" height="10" rx="5.0" fill="#C4C8CC"/><circle cx="52" cy="146" r="6" fill="none" stroke="#9AA0A6" stroke-width="1.5"/><text x="68" y="150" font-size="12" fill="#5F6368" font-weight="normal" text-anchor="start">Dashboard</text><rect x="35" y="176" width="180" height="30" rx="6" fill="#C4C8CC" stroke="none" stroke-width="1.5"/><circle cx="52" cy="190" r="6" fill="none" stroke="#9AA0A6" stroke-width="1.5"/><text x="68" y="194" font-size="12" fill="#5F6368" font-weight="normal" text-anchor="start">Usuarios</text><circle cx="52" cy="234" r="6" fill="none" stroke="#9AA0A6" stroke-width="1.5"/><text x="68" y="238" font-size="12" fill="#5F6368" font-weight="normal" text-anchor="start">Roles</text><circle cx="52" cy="278" r="6" fill="none" stroke="#9AA0A6" stroke-width="1.5"/><text x="68" y="282" font-size="12" fill="#5F6368" font-weight="normal" text-anchor="start">Clientes</text><circle cx="52" cy="322" r="6" fill="none" stroke="#9AA0A6" stroke-width="1.5"/><text x="68" y="326" font-size="12" fill="#5F6368" font-weight="normal" text-anchor="start">Repuestos</text><circle cx="52" cy="366" r="6" fill="none" stroke="#9AA0A6" stroke-width="1.5"/><text x="68" y="370" font-size="12" fill="#5F6368" font-weight="normal" text-anchor="start">Reportes</text><line x1="230" y1="95" x2="1180" y2="95" stroke="#9AA0A6" stroke-width="1"/><rect x="260" y="58" width="260" height="26" rx="13" fill="none" stroke="#9AA0A6" stroke-width="1.5"/><text x="275" y="75" font-size="11" fill="#9AA0A6" font-weight="normal" text-anchor="start">🔍  Buscar...</text><circle cx="1140" cy="71" r="14" fill="none" stroke="#9AA0A6" stroke-width="1.5"/><rect x="1050" y="66" width="70" height="8" rx="4.0" fill="#C4C8CC"/><text x="260" y="130" font-size="16" fill="#5F6368" font-weight="bold" text-anchor="start">Usuarios y Roles</text><rect x="260" y="145" width="130" height="32" rx="6" fill="#C4C8CC" stroke="none" stroke-width="1.5"/><text x="325" y="166" font-size="12" fill="#5F6368" font-weight="bold" text-anchor="middle">Usuarios</text><rect x="395" y="145" width="130" height="32" rx="6" fill="none" stroke="#9AA0A6" stroke-width="1.5"/><text x="460" y="166" font-size="12" fill="#9AA0A6" font-weight="normal" text-anchor="middle">Roles</text><rect x="260" y="195" width="300" height="36" rx="18" fill="none" stroke="#9AA0A6" stroke-width="1.5"/><text x="278" y="218" font-size="11" fill="#9AA0A6" font-weight="normal" text-anchor="start">🔍  Buscar usuario...</text><rect x="1020" y="194" width="160" height="38" rx="6" fill="#C4C8CC" stroke="#9AA0A6" stroke-width="1.5"/><text x="1100.0" y="218" font-size="13" fill="#5F6368" font-weight="bold" text-anchor="middle">+ NUEVO USUARIO</text><rect x="260" y="250" width="920" height="400" rx="8" fill="none" stroke="#9AA0A6" stroke-width="1.5"/><rect x="270" y="270" width="900" height="28" fill="#E8EAED"/><text x="280" y="289" font-size="11" fill="#5F6368" font-weight="bold" text-anchor="start">ID</text><text x="340" y="289" font-size="11" fill="#5F6368" font-weight="bold" text-anchor="start">Nombre</text><text x="560" y="289" font-size="11" fill="#5F6368" font-weight="bold" text-anchor="start">Correo</text><text x="790" y="289" font-size="11" fill="#5F6368" font-weight="bold" text-anchor="start">Rol</text><text x="930" y="289" font-size="11" fill="#5F6368" font-weight="bold" text-anchor="start">Estado</text><text x="1040" y="289" font-size="11" fill="#5F6368" font-weight="bold" text-anchor="start">Acciones</text><text x="280" y="319" font-size="11" fill="#9AA0A6" font-weight="normal" text-anchor="start">1</text><rect x="340" y="310" width="160" height="7" rx="3.5" fill="#C4C8CC"/><rect x="560" y="310" width="190" height="7" rx="3.5" fill="#C4C8CC"/><rect x="790" y="305" width="90" height="20" rx="10" fill="none" stroke="#9AA0A6" stroke-width="1.5"/><rect x="930" y="305" width="70" height="20" rx="10" fill="#E8EAED" stroke="none" stroke-width="1.5"/><rect x="1040" y="303" width="24" height="24" rx="5" fill="none" stroke="#9AA0A6" stroke-width="1.5"/><rect x="1074" y="303" width="24" height="24" rx="5" fill="none" stroke="#9AA0A6" stroke-width="1.5"/><rect x="1108" y="303" width="24" height="24" rx="5" fill="none" stroke="#9AA0A6" stroke-width="1.5"/><text x="280" y="371" font-size="11" fill="#9AA0A6" font-weight="normal" text-anchor="start">2</text><rect x="340" y="362" width="160" height="7" rx="3.5" fill="#C4C8CC"/><rect x="560" y="362" width="190" height="7" rx="3.5" fill="#C4C8CC"/><rect x="790" y="357" width="90" height="20" rx="10" fill="none" stroke="#9AA0A6" stroke-width="1.5"/><rect x="930" y="357" width="70" height="20" rx="10" fill="#E8EAED" stroke="none" stroke-width="1.5"/><rect x="1040" y="355" width="24" height="24" rx="5" fill="none" stroke="#9AA0A6" stroke-width="1.5"/><rect x="1074" y="355" width="24" height="24" rx="5" fill="none" stroke="#9AA0A6" stroke-width="1.5"/><rect x="1108" y="355" width="24" height="24" rx="5" fill="none" stroke="#9AA0A6" stroke-width="1.5"/><text x="280" y="423" font-size="11" fill="#9AA0A6" font-weight="normal" text-anchor="start">3</text><rect x="340" y="414" width="160" height="7" rx="3.5" fill="#C4C8CC"/><rect x="560" y="414" width="190" height="7" rx="3.5" fill="#C4C8CC"/><rect x="790" y="409" width="90" height="20" rx="10" fill="none" stroke="#9AA0A6" stroke-width="1.5"/><rect x="930" y="409" width="70" height="20" rx="10" fill="#E8EAED" stroke="none" stroke-width="1.5"/><rect x="1040" y="407" width="24" height="24" rx="5" fill="none" stroke="#9AA0A6" stroke-width="1.5"/><rect x="1074" y="407" width="24" height="24" rx="5" fill="none" stroke="#9AA0A6" stroke-width="1.5"/><rect x="1108" y="407" width="24" height="24" rx="5" fill="none" stroke="#9AA0A6" stroke-width="1.5"/><text x="280" y="475" font-size="11" fill="#9AA0A6" font-weight="normal" text-anchor="start">4</text><rect x="340" y="466" width="160" height="7" rx="3.5" fill="#C4C8CC"/><rect x="560" y="466" width="190" height="7" rx="3.5" fill="#C4C8CC"/><rect x="790" y="461" width="90" height="20" rx="10" fill="none" stroke="#9AA0A6" stroke-width="1.5"/><rect x="930" y="461" width="70" height="20" rx="10" fill="#E8EAED" stroke="none" stroke-width="1.5"/><rect x="1040" y="459" width="24" height="24" rx="5" fill="none" stroke="#9AA0A6" stroke-width="1.5"/><rect x="1074" y="459" width="24" height="24" rx="5" fill="none" stroke="#9AA0A6" stroke-width="1.5"/><rect x="1108" y="459" width="24" height="24" rx="5" fill="none" stroke="#9AA0A6" stroke-width="1.5"/><text x="280" y="527" font-size="11" fill="#9AA0A6" font-weight="normal" text-anchor="start">5</text><rect x="340" y="518" width="160" height="7" rx="3.5" fill="#C4C8CC"/><rect x="560" y="518" width="190" height="7" rx="3.5" fill="#C4C8CC"/><rect x="790" y="513" width="90" height="20" rx="10" fill="none" stroke="#9AA0A6" stroke-width="1.5"/><rect x="930" y="513" width="70" height="20" rx="10" fill="#E8EAED" stroke="none" stroke-width="1.5"/><rect x="1040" y="511" width="24" height="24" rx="5" fill="none" stroke="#9AA0A6" stroke-width="1.5"/><rect x="1074" y="511" width="24" height="24" rx="5" fill="none" stroke="#9AA0A6" stroke-width="1.5"/><rect x="1108" y="511" width="24" height="24" rx="5" fill="none" stroke="#9AA0A6" stroke-width="1.5"/><text x="280" y="579" font-size="11" fill="#9AA0A6" font-weight="normal" text-anchor="start">6</text><rect x="340" y="570" width="160" height="7" rx="3.5" fill="#C4C8CC"/><rect x="560" y="570" width="190" height="7" rx="3.5" fill="#C4C8CC"/><rect x="790" y="565" width="90" height="20" rx="10" fill="none" stroke="#9AA0A6" stroke-width="1.5"/><rect x="930" y="565" width="70" height="20" rx="10" fill="#E8EAED" stroke="none" stroke-width="1.5"/><rect x="1040" y="563" width="24" height="24" rx="5" fill="none" stroke="#9AA0A6" stroke-width="1.5"/><rect x="1074" y="563" width="24" height="24" rx="5" fill="none" stroke="#9AA0A6" stroke-width="1.5"/><rect x="1108" y="563" width="24" height="24" rx="5" fill="none" stroke="#9AA0A6" stroke-width="1.5"/><rect x="280" y="668" width="120" height="7" rx="3.5" fill="#C4C8CC"/><rect x="1020" y="658" width="28" height="28" rx="5" fill="none" stroke="#9AA0A6" stroke-width="1.5"/><text x="1034" y="677" font-size="11" fill="#9AA0A6" font-weight="normal" text-anchor="middle">&lt;</text><rect x="1054" y="658" width="28" height="28" rx="5" fill="none" stroke="#9AA0A6" stroke-width="1.5"/><text x="1068" y="677" font-size="11" fill="#9AA0A6" font-weight="normal" text-anchor="middle">1</text><rect x="1088" y="658" width="28" height="28" rx="5" fill="none" stroke="#9AA0A6" stroke-width="1.5"/><text x="1102" y="677" font-size="11" fill="#9AA0A6" font-weight="normal" text-anchor="middle">2</text><rect x="1122" y="658" width="28" height="28" rx="5" fill="none" stroke="#9AA0A6" stroke-width="1.5"/><text x="1136" y="677" font-size="11" fill="#9AA0A6" font-weight="normal" text-anchor="middle">3</text><rect x="1156" y="658" width="28" height="28" rx="5" fill="none" stroke="#9AA0A6" stroke-width="1.5"/><text x="1170" y="677" font-size="11" fill="#9AA0A6" font-weight="normal" text-anchor="middle">&gt;</text></svg>